<svg width="338" height="103" xmlns="http://www.w3.org/2000/svg"><g fill="none" fill-rule="evenodd"><g stroke="#F2634A" stroke-linecap="round" stroke-linejoin="round" stroke-width="8"><path d="M16 83c2.104-98.27 55.192-95.76 72.387-39.837 3.72 12.103 25.29-25.695 23.61 39.837H16zm48 16c-23.9 0-60-3.582-60-8 0-8 12.039-8 60-8s60 0 60 8c0 4.418-36.1 8-60 8z"/><path d="M40 51c.013 7.516 3.77 12.47 11.273 14.864S65.685 67.304 72 63"/></g><path d="M164.84 48V14.4h12.672c7.104 0 10.512 4.368 10.512 10.224s-3.408 10.224-10.512 10.224h-6.432V48h-6.24zm6.24-18.912h6.192c2.736 0 4.416-1.392 4.416-4.464 0-3.072-1.68-4.464-4.416-4.464h-6.192v8.928zM193.016 48V14.016h5.952v13.68c1.536-2.448 4.176-4.272 7.68-4.272 4.56 0 7.536 2.352 7.536 7.296V48h-5.952V32.832c0-2.928-1.152-4.32-3.6-4.32-2.736 0-5.664 2.736-5.664 9.264V48h-5.952zm33.216.384c-4.128 0-7.344-2.544-7.344-7.344 0-4.8 3.936-7.92 10.128-7.92h4.224v-1.056c0-2.544-2.016-3.552-4.224-3.552-1.92 0-3.408.768-4.176 2.784l-5.04-1.152c.768-3.984 4.368-6.72 9.216-6.72 6.384 0 10.176 3.36 10.176 10.128V48h-4.896l-.624-3.072c-1.68 2.064-3.984 3.456-7.44 3.456zm1.584-5.088c2.688 0 5.424-1.872 5.424-4.992v-.48h-3.984c-2.544 0-4.128.96-4.128 3.12 0 1.392 1.104 2.352 2.688 2.352zM245.24 48V23.808h5.952v3.936c1.728-2.832 4.416-4.32 7.152-4.32 1.056 0 1.968.192 2.928.48l-1.104 5.52c-.72-.432-1.488-.672-2.496-.672-3.456 0-6.48 2.832-6.48 10.656V48h-5.952zm19.824 0V23.808h5.952v3.936c1.728-2.832 4.416-4.32 7.152-4.32 1.056 0 1.968.192 2.928.48l-1.104 5.52c-.72-.432-1.488-.672-2.496-.672-3.456 0-6.48 2.832-6.48 10.656V48h-5.952zm29.184.384c-8.304 0-11.616-6.768-11.616-12.48 0-5.712 3.312-12.48 11.616-12.48 8.064 0 11.28 6.672 11.28 11.952v2.448h-16.656c.144 2.688 2.016 5.472 5.712 5.472 2.736 0 4.416-1.248 5.856-3.744l4.8 1.776c-1.872 4.272-5.136 7.056-10.992 7.056zm-5.232-15.264h10.416c-.528-2.4-2.016-4.608-5.184-4.608-3.024 0-4.8 2.304-5.232 4.608zM310.904 48V14.016h5.952V48h-5.952zm12.672 0V14.016h5.952V48h-5.952z" fill="#212325"/><path d="M163.16 88V71.2h5.4c2.952 0 4.68 1.608 4.68 4.296 0 1.872-1.032 2.832-2.112 3.312 1.68.6 2.976 1.944 2.976 4.344 0 2.952-1.992 4.848-5.16 4.848h-5.784zm1.584-9.696h3.816c1.944 0 3.048-.912 3.048-2.808s-1.104-2.808-3.048-2.808h-3.816v5.616zm0 8.208h3.888c2.424 0 3.816-.888 3.816-3.36s-1.392-3.36-3.816-3.36h-3.888v6.72zm17.28 1.68c-3.216 0-5.376-2.64-5.376-6.24s2.16-6.24 5.376-6.24c3.12 0 5.304 2.232 5.304 5.568v.672h-9.12c0 2.832 1.392 4.848 3.816 4.848 1.848 0 2.832-.792 3.72-2.592l1.32.648c-1.248 2.472-2.808 3.336-5.04 3.336zm-3.72-7.632h7.488c-.288-2.088-1.584-3.456-3.768-3.456-2.016 0-3.312 1.488-3.72 3.456zm16.68 7.632c-3.552 0-5.352-3.072-5.352-6.24s1.8-6.24 5.352-6.24c2.376 0 4.032 1.08 4.872 3.336l-1.344.528c-.6-1.56-1.728-2.472-3.528-2.472-2.592 0-3.792 2.232-3.792 4.848 0 2.616 1.2 4.848 3.792 4.848 1.8 0 2.88-.888 3.528-2.472l1.344.528c-.84 2.184-2.496 3.336-4.872 3.336zm10.608 0c-2.016 0-3.768-1.008-3.768-3.672 0-2.688 2.112-3.96 5.496-3.96h2.088v-.528c0-2.112-1.176-2.928-2.784-2.928-1.656 0-2.52 1.032-2.88 2.256l-1.44-.336c.336-2.04 2.16-3.312 4.32-3.312 2.376 0 4.272 1.536 4.272 4.272V88h-1.128l-.36-1.872c-.672 1.176-1.896 2.064-3.816 2.064zm.144-1.392c1.56 0 3.672-1.128 3.672-4.392v-.456h-2.04c-2.76 0-3.984.984-3.984 2.568 0 1.488.912 2.28 2.352 2.28zm12.336 1.392c-2.28 0-3.72-1.44-3.72-3.984v-8.304h1.488v8.112c0 1.752.792 2.784 2.472 2.784 2.208 0 3.912-2.16 3.912-5.592v-5.304h1.488V88h-1.488v-2.52c-.816 1.584-2.4 2.712-4.152 2.712zm12.744 0c-2.64 0-3.96-1.656-4.368-3.312l1.32-.696c.456 1.536 1.272 2.616 3.048 2.616 1.368 0 2.184-.816 2.184-2.136 0-1.272-1.08-1.848-2.664-2.4-1.752-.624-3.048-1.464-3.048-3.384 0-1.944 1.464-3.168 3.384-3.168 1.536 0 2.592.6 3.36 1.872l-1.056.912c-.648-1.008-1.416-1.392-2.376-1.392-1.008 0-1.776.648-1.776 1.728 0 1.128.888 1.632 2.784 2.328 1.512.552 2.952 1.608 2.952 3.48 0 2.232-1.464 3.552-3.744 3.552zm11.112 0c-3.216 0-5.376-2.64-5.376-6.24s2.16-6.24 5.376-6.24c3.12 0 5.304 2.232 5.304 5.568v.672h-9.12c0 2.832 1.392 4.848 3.816 4.848 1.848 0 2.832-.792 3.72-2.592l1.32.648c-1.248 2.472-2.808 3.336-5.04 3.336zm-3.72-7.632h7.488c-.288-2.088-1.584-3.456-3.768-3.456-2.016 0-3.312 1.488-3.72 3.456zm18.84-6.912a1.2 1.2 0 0 1-1.224-1.224 1.2 1.2 0 0 1 1.224-1.224 1.2 1.2 0 0 1 1.224 1.224 1.2 1.2 0 0 1-1.224 1.224zM256.304 88V75.904h1.488V88h-1.488zm8.808.192c-1.752 0-3.024-1.08-3.024-3.624v-7.272h-2.136v-1.392h2.136v-3.912l1.488-.984v4.896h3.264v1.392h-3.264v7.512c0 1.368.696 1.992 1.728 1.992.48 0 1.056-.096 1.512-.384l.408 1.344c-.576.312-1.368.432-2.112.432zm4.104-12.768l1.464-4.416h2.28l-2.664 4.416h-1.08zm7.824 12.768c-2.64 0-3.96-1.656-4.368-3.312l1.32-.696c.456 1.536 1.272 2.616 3.048 2.616 1.368 0 2.184-.816 2.184-2.136 0-1.272-1.08-1.848-2.664-2.4-1.752-.624-3.048-1.464-3.048-3.384 0-1.944 1.464-3.168 3.384-3.168 1.536 0 2.592.6 3.36 1.872l-1.056.912c-.648-1.008-1.416-1.392-2.376-1.392-1.008 0-1.776.648-1.776 1.728 0 1.128.888 1.632 2.784 2.328 1.512.552 2.952 1.608 2.952 3.48 0 2.232-1.464 3.552-3.744 3.552zM288.224 88l6.072-16.8h1.392L301.76 88h-1.632l-1.68-4.776h-6.912L289.856 88h-1.632zm3.816-6.264h5.904l-2.952-8.376-2.952 8.376zM303.968 88V71.2h5.712c3 0 4.848 1.728 4.848 4.632s-1.848 4.632-4.848 4.632h-4.128V88h-1.584zm1.584-9.024h4.152c2.304 0 3.168-1.368 3.168-3.144s-.864-3.144-3.168-3.144h-4.152v6.288zM317.744 88V71.2h1.584V88h-1.584zm4.656-12.576l1.464-4.416h2.28l-2.664 4.416h-1.08zm7.776 17.472l1.752-4.968-4.344-12.024h1.56l3.6 9.792 3.36-9.792h1.56l-6 16.992h-1.488z" fill="#4D5052"/></g></svg>